<svg aria-hidden="true" style="position: absolute; width: 0; height: 0; overflow: hidden;" version="1.1" xmlns="http://www.w3.org/2000/svg" xmlns:xlink="http://www.w3.org/1999/xlink">
<defs>
<symbol id="icon-gold" viewBox="0 0 32 32">
<title>gold</title>
<path d="M16 0l-10 16 10 16 10-16z"></path>
</symbol>
<symbol id="icon-picture" viewBox="0 0 32 32">
<title>picture</title>
<path d="M20 12l-6 10-3.97-2.896-0.030-0.104-0.236-0.091 0.184 0.135-5.948 4.956v2h24v-2l-3-9-5-3zM9 13c1.656 0 3-1.343 3-3s-1.344-3-3-3-3 1.343-3 3 1.344 3 3 3zM31 2h-30c-0.552 0-1 0.448-1 1v26c0 0.553 0.448 1 1 1h30c0.553 0 1-0.447 1-1v-26c0-0.552-0.447-1-1-1zM30 27c0 0.553-0.447 1-1 1h-26c-0.552 0-1-0.447-1-1v-22c0-0.552 0.448-1 1-1h26c0.553 0 1 0.448 1 1v22z"></path>
</symbol>
<symbol id="icon-office" viewBox="0 0 32 32">
<title>office</title>
<path d="M0 32h16v-32h-16v32zM10 4h4v4h-4v-4zM10 12h4v4h-4v-4zM10 20h4v4h-4v-4zM2 4h4v4h-4v-4zM2 12h4v4h-4v-4zM2 20h4v4h-4v-4zM18 10h14v2h-14zM18 32h4v-8h6v8h4v-18h-14z"></path>
</symbol>
<symbol id="icon-spinner8" viewBox="0 0 32 32">
<title>spinner8</title>
<path d="M16 32c-4.274 0-8.292-1.664-11.314-4.686s-4.686-7.040-4.686-11.314c0-3.026 0.849-5.973 2.456-8.522 1.563-2.478 3.771-4.48 6.386-5.791l1.344 2.682c-2.126 1.065-3.922 2.693-5.192 4.708-1.305 2.069-1.994 4.462-1.994 6.922 0 7.168 5.832 13 13 13s13-5.832 13-13c0-2.459-0.69-4.853-1.994-6.922-1.271-2.015-3.066-3.643-5.192-4.708l1.344-2.682c2.615 1.31 4.824 3.313 6.386 5.791 1.607 2.549 2.456 5.495 2.456 8.522 0 4.274-1.664 8.292-4.686 11.314s-7.040 4.686-11.314 4.686z"></path>
</symbol>
<symbol id="icon-enter" viewBox="0 0 32 32">
<title>enter</title>
<path d="M12 16h-10v-4h10v-4l6 6-6 6zM32 0v26l-12 6v-6h-12v-8h2v6h10v-18l8-4h-18v8h-2v-10z"></path>
</symbol>
<symbol id="icon-exit" viewBox="0 0 32 32">
<title>exit</title>
<path d="M24 20v-4h-10v-4h10v-4l6 6zM22 18v8h-10v6l-12-6v-26h22v10h-2v-8h-16l8 4v18h8v-6z"></path>
</symbol>
<symbol id="icon-question_answer" viewBox="0 0 32 32">
<title>question_answer</title>
<path d="M22.688 16c0 0.75-0.625 1.313-1.375 1.313h-13.313l-5.313 5.375v-18.688c0-0.75 0.563-1.313 1.313-1.313h17.313c0.75 0 1.375 0.563 1.375 1.313v12zM28 8c0.75 0 1.313 0.563 1.313 1.313v20l-5.313-5.313h-14.688c-0.75 0-1.313-0.563-1.313-1.313v-2.688h17.313v-12h2.688z"></path>
</symbol>
<symbol id="icon-files" viewBox="0 0 32 32">
<title>files</title>
<path d="M6.667 0v4h-4v28h22.667v-4h4v-28h-22.667zM22.667 29.333h-17.333v-22.667h1.333v21.333h16v1.333zM26.667 25.333h-17.333v-22.667h17.333v22.667zM20 6.667h-8v2.667h8v-2.667zM24 10.667h-12v1.333h12v-1.333zM24 13.333h-12v1.333h12v-1.333zM24 16h-12v1.333h12v-1.333zM16 18.667h-4v1.333h4v-1.333z"></path>
</symbol>
<symbol id="icon-paperclip" viewBox="0 0 32 32">
<title>paperclip</title>
<path d="M29.467 13.733c-0.533-0.533-1.333-0.533-1.867 0l-12.267 12.267c-2.667 2.667-6.8 2.667-9.467 0s-2.667-6.8 0-9.467l12.267-12.267c1.467-1.467 4.133-1.467 5.6 0 1.6 1.6 1.6 4.133 0 5.6l-12.267 12.267c-0.533 0.533-1.333 0.533-1.867 0-0.133-0.133-0.267-0.4-0.267-0.8s0.133-0.667 0.4-0.933l11.333-11.333c0.533-0.533 0.533-1.333 0-1.867s-1.333-0.533-1.867 0l-11.333 11.333c-0.8 0.667-1.2 1.733-1.2 2.8s0.4 2.133 1.2 2.8c1.6 1.6 4.133 1.6 5.6 0l12.267-12.267c2.667-2.667 2.667-6.8 0-9.467-1.2-1.2-2.933-2-4.667-2s-3.467 0.667-4.667 2l-12.267 12.267c-3.6 3.6-3.6 9.6 0 13.2 1.867 1.867 4.267 2.667 6.667 2.667s4.8-0.933 6.667-2.667l12.267-12.267c0.267-0.4 0.267-1.333-0.267-1.867z"></path>
</symbol>
<symbol id="icon-delete" viewBox="0 0 32 32">
<title>delete</title>
<path d="M16 5.333c-5.892 0-10.667 4.776-10.667 10.667s4.775 10.667 10.667 10.667 10.667-4.776 10.667-10.667-4.775-10.667-10.667-10.667zM20.943 19.057c0.521 0.521 0.521 1.364 0 1.885-0.26 0.26-0.601 0.391-0.943 0.391s-0.683-0.131-0.943-0.391l-3.057-3.057-3.057 3.057c-0.26 0.26-0.601 0.391-0.943 0.391s-0.683-0.131-0.943-0.391c-0.521-0.521-0.521-1.364 0-1.885l3.057-3.057-3.057-3.057c-0.521-0.521-0.521-1.364 0-1.885s1.364-0.521 1.885 0l3.057 3.057 3.057-3.057c0.521-0.521 1.364-0.521 1.885 0s0.521 1.364 0 1.885l-3.057 3.057 3.057 3.057z"></path>
</symbol>
<symbol id="icon-view-show" viewBox="0 0 32 32">
<title>view-show</title>
<path d="M29.095 16.573c-0.111-0.159-2.749-3.925-6.391-6.5-1.888-1.337-4.269-2.073-6.704-2.073-2.433 0-4.815 0.736-6.707 2.073-3.641 2.575-6.277 6.341-6.388 6.5-0.317 0.457-0.317 1.064 0 1.521 0.111 0.159 2.747 3.925 6.388 6.5 1.892 1.336 4.273 2.072 6.707 2.072 2.435 0 4.816-0.736 6.704-2.073 3.641-2.575 6.28-6.341 6.391-6.5 0.319-0.456 0.319-1.064 0-1.52zM16 22c-2.579 0-4.667-2.093-4.667-4.667 0-2.579 2.088-4.667 4.667-4.667 2.573 0 4.667 2.088 4.667 4.667 0 2.573-2.093 4.667-4.667 4.667z"></path>
<path d="M18.667 17.333c0 1.469-1.197 2.667-2.667 2.667-1.473 0-2.667-1.197-2.667-2.667 0-1.473 1.193-2.667 2.667-2.667 1.469 0 2.667 1.193 2.667 2.667z"></path>
</symbol>
<symbol id="icon-weather-partly-sunny" viewBox="0 0 32 32">
<title>weather-partly-sunny</title>
<path d="M19.333 4l-1.333 4-1.333-4c-0.245-0.737 0.152-1.532 0.888-1.777 0.737-0.247 1.533 0.152 1.779 0.888 0.1 0.301 0.093 0.611 0 0.889z"></path>
<path d="M26.485 8.067l-3.772 1.887 1.887-3.772c0.348-0.695 1.192-0.975 1.885-0.629 0.695 0.348 0.975 1.192 0.629 1.887-0.143 0.283-0.365 0.496-0.629 0.628z"></path>
<path d="M28.667 16l-4-1.333 4-1.333c0.737-0.247 1.532 0.152 1.779 0.889 0.245 0.736-0.153 1.531-0.891 1.777-0.3 0.1-0.609 0.092-0.888 0z"></path>
<path d="M11.4 6.181l1.887 3.772-3.772-1.887c-0.695-0.348-0.976-1.192-0.629-1.885 0.348-0.695 1.193-0.975 1.885-0.629 0.284 0.143 0.497 0.365 0.629 0.629z"></path>
<path d="M23.701 16.456c0.185-0.565 0.299-1.161 0.299-1.789 0-3.308-2.692-6-6-6-1.787 0-3.383 0.792-4.476 2.037-0.065-0.009-0.123-0.037-0.191-0.037-2.368 0-4.492 1.040-5.959 2.681-0.32-0.107-0.629-0.115-0.929-0.015-0.737 0.247-1.136 1.041-0.891 1.777 0.076 0.223 0.211 0.399 0.369 0.548-0.377 0.929-0.591 1.944-0.591 3.008 0 0.056 0 0.112 0.003 0.168-2.3 0.593-4.003 2.684-4.003 5.165 0 2.941 2.393 5.333 5.333 5.333h14.667c3.676 0 6.667-2.991 6.667-6.667 0-2.839-1.792-5.252-4.299-6.211zM18 11.333c1.839 0 3.333 1.495 3.333 3.333 0 0.488-0.128 0.941-0.317 1.359-0.472 0.028-0.96 0.099-1.491 0.251-0.695-1.804-2.139-3.22-3.956-3.873 0.608-0.653 1.469-1.069 2.431-1.069zM21.333 26.667h-14.667c-1.472 0-2.667-1.196-2.667-2.667s1.195-2.667 2.544-2.675l1.896 0.021-0.331-1.603c-0.073-0.351-0.109-0.715-0.109-1.077 0-2.941 2.393-5.333 5.333-5.333 0.032 0 0.060-0.017 0.092-0.019 2.539 0.073 4.66 1.875 5.129 4.36 0.041 0.104 0.029 0.175 0.051 0.248 0.164 0.581 0.689 0.941 1.261 0.949 0.141-0.001 0.263 0.004 0.385-0.031 0.416-0.12 0.759-0.175 1.081-0.175 2.205 0 4 1.795 4 4s-1.795 4-4 4z"></path>
</symbol>
<symbol id="icon-sun" viewBox="0 0 32 32">
<title>sun</title>
<path d="M17.333 5.333l-1.333 3.912-1.333-3.912c-0.251-0.737 0.141-1.536 0.879-1.788 0.736-0.251 1.537 0.143 1.788 0.879 0.104 0.307 0.096 0.625 0 0.909z"></path>
<path d="M5.333 14.667l3.912 1.333-3.912 1.333c-0.737 0.251-1.536-0.141-1.788-0.879-0.251-0.736 0.143-1.537 0.879-1.788 0.307-0.104 0.625-0.096 0.909 0z"></path>
<path d="M14.667 26.667l1.333-3.912 1.333 3.912c0.251 0.737-0.141 1.536-0.879 1.788-0.736 0.251-1.536-0.141-1.788-0.879-0.104-0.307-0.096-0.625 0-0.909z"></path>
<path d="M26.667 17.331l-3.912-1.333 3.912-1.333c0.737-0.251 1.536 0.141 1.788 0.879 0.251 0.736-0.141 1.536-0.879 1.788-0.307 0.104-0.625 0.096-0.909 0z"></path>
<path d="M9.4 7.515l1.823 3.708-3.708-1.823c-0.699-0.343-0.987-1.188-0.644-1.885 0.344-0.697 1.188-0.985 1.885-0.643 0.291 0.143 0.511 0.373 0.644 0.643z"></path>
<path d="M7.515 22.599l3.708-1.823-1.823 3.708c-0.343 0.697-1.188 0.985-1.885 0.643-0.697-0.344-0.985-1.188-0.643-1.885 0.143-0.291 0.373-0.509 0.643-0.643z"></path>
<path d="M22.599 24.484l-1.823-3.708 3.708 1.823c0.697 0.343 0.985 1.188 0.643 1.885-0.344 0.697-1.188 0.985-1.885 0.643-0.291-0.143-0.509-0.373-0.643-0.643z"></path>
<path d="M24.483 9.397l-3.709 1.824 1.824-3.709c0.343-0.697 1.188-0.985 1.885-0.643 0.697 0.344 0.985 1.188 0.641 1.887-0.141 0.289-0.372 0.508-0.641 0.641z"></path>
<path d="M16 22c-3.308 0-6-2.692-6-6s2.692-6 6-6 6 2.692 6 6-2.692 6-6 6zM16 12.667c-1.839 0-3.333 1.495-3.333 3.333s1.495 3.333 3.333 3.333 3.333-1.495 3.333-3.333-1.495-3.333-3.333-3.333z"></path>
</symbol>
<symbol id="icon-notifications-outline" viewBox="0 0 32 32">
<title>notifications-outline</title>
<path d="M9.6 12.8v11.2h12.8v-11.2c0-3.535-2.865-6.4-6.4-6.4s-6.4 2.865-6.4 6.4v0zM12.848 3.728c-0.025-0.152-0.040-0.326-0.040-0.504 0-1.767 1.433-3.2 3.2-3.2s3.2 1.433 3.2 3.2c0 0.178-0.015 0.353-0.043 0.523l0.003-0.019c3.777 1.349 6.432 4.895 6.432 9.062 0 0.003 0 0.007 0 0.010v-0.001 9.6l4.8 3.2v1.6h-28.8v-1.6l4.8-3.2v-9.6c0-0.001 0-0.003 0-0.004 0-4.173 2.662-7.724 6.381-9.047l0.067-0.021zM19.2 28.8c0 1.767-1.433 3.2-3.2 3.2s-3.2-1.433-3.2-3.2v0h6.4z"></path>
</symbol>
<symbol id="icon-exclamation-outline" viewBox="0 0 32 32">
<title>exclamation-outline</title>
<path d="M4.688 27.312c-3.014-2.914-4.885-6.993-4.885-11.509 0-8.837 7.163-16 16-16 4.516 0 8.595 1.871 11.504 4.88l0.004 0.005c2.779 2.874 4.491 6.795 4.491 11.115 0 8.837-7.163 16-16 16-4.32 0-8.241-1.712-11.12-4.496l0.005 0.004zM25.056 25.056c2.318-2.318 3.751-5.519 3.751-9.056 0-7.073-5.734-12.807-12.807-12.807-3.537 0-6.738 1.434-9.056 3.751v0c-2.318 2.318-3.751 5.519-3.751 9.056 0 7.073 5.734 12.807 12.807 12.807 3.537 0 6.738-1.433 9.056-3.751v0zM14.4 8h3.2v9.6h-3.2v-9.6zM14.4 20.8h3.2v3.2h-3.2v-3.2z"></path>
</symbol>
<symbol id="icon-home" viewBox="0 0 32 32">
<title>home</title>
<path d="M12.8 32h-8v-16h-4.8l16-16 16 16h-4.8v16h-8v-9.6h-6.4v9.6z"></path>
</symbol>
<symbol id="icon-add-outline" viewBox="0 0 32 32">
<title>add-outline</title>
<path d="M17.6 14.4h6.4v3.2h-6.4v6.4h-3.2v-6.4h-6.4v-3.2h6.4v-6.4h3.2v6.4zM16 32c-8.837 0-16-7.163-16-16s7.163-16 16-16v0c8.837 0 16 7.163 16 16s-7.163 16-16 16v0zM16 28.8c7.069 0 12.8-5.731 12.8-12.8s-5.731-12.8-12.8-12.8v0c-7.069 0-12.8 5.731-12.8 12.8s5.731 12.8 12.8 12.8v0z"></path>
</symbol>
<symbol id="icon-minus-outline" viewBox="0 0 32 32">
<title>minus-outline</title>
<path d="M16 32c-8.837 0-16-7.163-16-16s7.163-16 16-16v0c8.837 0 16 7.163 16 16s-7.163 16-16 16v0zM16 28.8c7.069 0 12.8-5.731 12.8-12.8s-5.731-12.8-12.8-12.8v0c-7.069 0-12.8 5.731-12.8 12.8s5.731 12.8 12.8 12.8v0zM24 14.4v3.2h-16v-3.2h16z"></path>
</symbol>
<symbol id="icon-chevron-down" viewBox="0 0 32 32">
<title>chevron-down</title>
<path d="M7.226 12.077c0.698-0.714 1.669-0.77 2.522 0l6.253 5.995 6.253-5.995c0.853-0.77 1.826-0.714 2.518 0 0.698 0.712 0.653 1.915 0 2.584-0.65 0.669-7.512 7.203-7.512 7.203-0.347 0.357-0.803 0.536-1.259 0.536s-0.912-0.179-1.262-0.536c0 0-6.859-6.534-7.512-7.203-0.654-0.669-0.698-1.872 0-2.584z"></path>
</symbol>
<symbol id="icon-triangle-down" viewBox="0 0 32 32">
<title>triangle-down</title>
<path d="M8 9.6h16l-8 14.4-8-14.4z"></path>
</symbol>
<symbol id="icon-camera" viewBox="0 0 32 32">
<title>camera</title>
<path d="M16 12.8c-2.651 0-4.8 2.15-4.8 4.8s2.149 4.8 4.8 4.8c2.65 0 4.8-2.15 4.8-4.8s-2.15-4.8-4.8-4.8zM28.8 8h-3.84c-0.528 0-1.098-0.41-1.262-0.912l-0.994-2.978c-0.168-0.501-0.734-0.91-1.264-0.91h-10.88c-0.528 0-1.098 0.41-1.262 0.909l-0.995 2.979c-0.166 0.502-0.734 0.912-1.262 0.912h-3.84c-1.76 0-3.2 1.44-3.2 3.2v14.4c0 1.76 1.44 3.2 3.2 3.2h25.6c1.76 0 3.2-1.44 3.2-3.2v-14.4c0-1.76-1.44-3.2-3.2-3.2zM16 25.6c-4.419 0-8-3.581-8-8s3.581-8 8-8c4.418 0 8 3.581 8 8s-3.582 8-8 8zM28 13.12c-0.619 0-1.12-0.502-1.12-1.122 0-0.616 0.501-1.12 1.12-1.12s1.12 0.502 1.12 1.12c0 0.619-0.501 1.122-1.12 1.122z"></path>
</symbol>
<symbol id="icon-credit" viewBox="0 0 32 32">
<title>credit</title>
<path d="M17.6 26.808v3.592h-3.2v-3.429c-2.739-0.16-4.906-0.942-6.786-2.875l2.749-2.784c1.374 1.392 3.237 1.856 5.251 1.856 2.504 0 3.848-0.958 3.848-2.723 0-0.773-0.213-1.422-0.672-1.856-0.427-0.402-0.915-0.619-1.923-0.773l-2.627-0.371c-1.862-0.278-3.235-0.866-4.214-1.826-1.037-1.051-1.557-2.474-1.557-4.331 0-3.448 2.211-5.989 5.931-6.56v-3.128h3.2v3.091c2.211 0.232 3.944 0.992 5.464 2.482l-2.686 2.691c-1.374-1.331-3.022-1.515-4.459-1.515-2.259 0-3.358 1.267-3.358 2.784 0 0.557 0.184 1.146 0.642 1.578 0.427 0.403 1.13 0.742 2.016 0.866l2.563 0.371c1.986 0.278 3.237 0.835 4.154 1.701 1.162 1.114 1.68 2.723 1.68 4.672 0 3.6-2.507 5.859-6.014 6.488z"></path>
</symbol>
<symbol id="icon-edit" viewBox="0 0 32 32">
<title>edit</title>
<path d="M28.098 3.902c-2.307-2.309-4.040-1.963-4.040-1.963l-20.522 20.52-1.616 7.619 7.621-1.616 20.522-20.517c-0.002 0 0.346-1.733-1.965-4.043zM9.088 27.547l-2.598 0.56c-0.25-0.469-0.552-0.938-1.104-1.491-0.554-0.554-1.022-0.853-1.491-1.106l0.56-2.597 0.752-0.75c0 0 1.413 0.029 3.010 1.626 1.595 1.594 1.626 3.010 1.626 3.010l-0.754 0.749z"></path>
</symbol>
<symbol id="icon-light-bulb" viewBox="0 0 32 32">
<title>light-bulb</title>
<path d="M11.498 30.675c1.262 0.816 2.722 1.368 4.502 1.325 1.778 0.043 3.24-0.509 4.502-1.325l-0.027-3.475h-8.95l-0.027 3.475zM20.315 25.6c0-6.971 7.408-9.357 6.853-16.301-0.349-4.381-3.317-9.296-11.168-9.296s-10.819 4.915-11.17 9.298c-0.555 6.942 6.854 9.328 6.854 16.299h8.63zM8 9.6c0.331-4.157 3.381-6.4 8-6.4 4.618 0 7.446 2.194 7.778 6.35 0.181 2.278-1.128 3.797-2.894 6.282-1.302 1.834-2.565 3.749-3.283 6.568h-3.2c-0.718-2.819-1.981-4.734-3.285-6.57-1.765-2.483-3.298-3.952-3.115-6.23z"></path>
</symbol>
<symbol id="icon-location-pin" viewBox="0 0 32 32">
<title>location-pin</title>
<path d="M16 3.214c-4.419 0-8 3.566-8 7.984 0 7.638 8 17.6 8 17.6s8-9.963 8-17.6c0-4.416-3.581-7.984-8-7.984zM16 15.616c-2.387 0-4.32-1.934-4.32-4.32s1.933-4.32 4.32-4.32c2.384 0 4.318 1.934 4.318 4.32s-1.934 4.32-4.318 4.32z"></path>
</symbol>
<symbol id="icon-magnifying-glass" viewBox="0 0 32 32">
<title>magnifying-glass</title>
<path d="M28.072 24.747l-6.046-6.046c0.912-1.496 1.437-3.256 1.437-5.136 0-5.467-4.738-10.203-10.205-10.203-5.467-0.002-9.898 4.43-9.898 9.898 0 5.466 4.738 10.203 10.203 10.203 1.819 0 3.52-0.494 4.984-1.35l6.078 6.082c0.595 0.594 1.56 0.594 2.154 0l1.509-1.509c0.594-0.594 0.378-1.344-0.216-1.938zM6.406 13.259c0-3.786 3.067-6.853 6.851-6.853 3.786 0 7.158 3.371 7.158 7.158 0 3.784-3.069 6.853-6.853 6.853-3.786-0.002-7.157-3.374-7.157-7.158z"></path>
</symbol>
<symbol id="icon-map" viewBox="0 0 32 32">
<title>map</title>
<path d="M31.115 5.949l-9.6-4.8c-0.45-0.226-0.981-0.226-1.432 0l-9.008 4.504-8.97-2.99c-0.49-0.163-1.024-0.082-1.442 0.221-0.418 0.301-0.664 0.784-0.664 1.298v20.802c0 0.606 0.342 1.16 0.885 1.43l9.6 4.8c0.226 0.112 0.47 0.17 0.715 0.17s0.491-0.056 0.715-0.17l9.008-4.502 8.97 2.99c0.488 0.16 1.024 0.078 1.442-0.222s0.664-0.784 0.664-1.296v-20.803c0.002-0.606-0.341-1.16-0.883-1.43zM12.8 8.37l6.4-3.2v18.821l-6.4 3.2v-18.821zM3.2 6.4l6.4 2.133v18.658l-6.4-3.2v-17.59zM28.8 25.963l-6.4-2.134v-18.659l6.4 3.2v17.594z"></path>
</symbol>
<symbol id="icon-paper-plane" viewBox="0 0 32 32">
<title>paper-plane</title>
<path d="M29.824 4.214c-0.55 0.194-27.714 9.766-28.25 9.955-0.454 0.16-0.555 0.552-0.016 0.766 0.642 0.258 6.074 2.434 6.074 2.434v0l3.6 1.442c0 0 17.341-12.733 17.574-12.906 0.237-0.173 0.509 0.152 0.338 0.338-0.171 0.187-12.594 13.621-12.594 13.621v0.003l-0.723 0.805 0.958 0.515c0 0 7.44 4.006 7.971 4.291 0.466 0.25 1.069 0.043 1.203-0.534 0.158-0.682 4.552-19.618 4.65-20.040 0.126-0.549-0.237-0.883-0.786-0.69zM11.2 27.459c0 0.394 0.222 0.504 0.53 0.226 0.402-0.366 4.56-4.098 4.56-4.098l-5.090-2.63v6.502z"></path>
</symbol>
<symbol id="icon-share-alternitive" viewBox="0 0 32 32">
<title>share-alternitive</title>
<path d="M14.4 20.8h3.2v-14.4h3.2l-4.8-6.4-4.8 6.4h3.2v14.4zM27.2 11.2h-4.8v3.2h3.2v14.4h-19.2v-14.4h3.2v-3.2h-4.8c-0.885 0-1.6 0.715-1.6 1.6v17.6c0 0.883 0.715 1.6 1.6 1.6h22.4c0.885 0 1.6-0.717 1.6-1.6v-17.6c0-0.883-0.715-1.6-1.6-1.6z"></path>
</symbol>
<symbol id="icon-wallet" viewBox="0 0 32 32">
<title>wallet</title>
<path d="M25.6 9.6h-20v-0.8l17.6-1.408v1.408h2.4v-2.4c0-1.76-1.426-2.995-3.166-2.747l-16.066 2.294c-1.742 0.25-3.168 1.893-3.168 3.653v16c0 1.766 1.432 3.2 3.2 3.2h19.2c1.766 0 3.2-1.434 3.2-3.2v-12.8c0-1.766-1.434-3.2-3.2-3.2zM23.2 20.81c-1.325 0-2.4-1.075-2.4-2.4s1.075-2.4 2.4-2.4 2.4 1.075 2.4 2.4-1.075 2.4-2.4 2.4z"></path>
</symbol>
<symbol id="icon-facebook" viewBox="0 0 32 32">
<title>facebook</title>
<path d="M27.2 1.6h-22.4c-1.76 0-3.2 1.44-3.2 3.2v22.4c0 1.762 1.44 3.2 3.2 3.2h11.2v-11.2h-3.2v-3.96h3.2v-3.28c0-3.462 1.939-5.894 6.026-5.894l2.885 0.003v4.168h-1.915c-1.59 0-2.195 1.194-2.195 2.301v2.704h4.109l-0.909 3.958h-3.2v11.2h6.4c1.76 0 3.2-1.438 3.2-3.2v-22.4c0-1.76-1.44-3.2-3.2-3.2z"></path>
</symbol>
<symbol id="icon-instagram" viewBox="0 0 32 32">
<title>instagram</title>
<path d="M27.2 1.6h-22.4c-1.76 0-3.2 1.44-3.2 3.2v22.4c0 1.762 1.44 3.2 3.2 3.2h22.4c1.76 0 3.2-1.438 3.2-3.2v-22.4c0-1.76-1.44-3.2-3.2-3.2zM15.974 24.837c4.894 0 8.861-3.97 8.861-8.862 0-0.541-0.069-1.062-0.165-1.574h2.53v11.546c0 0.611-0.496 1.104-1.109 1.104h-20.182c-0.613 0-1.109-0.493-1.109-1.104v-11.546h2.478c-0.098 0.512-0.166 1.034-0.166 1.574 0 4.894 3.97 8.862 8.862 8.862zM10.437 15.974c0-3.059 2.48-5.538 5.539-5.538 3.058 0 5.539 2.478 5.539 5.538s-2.482 5.539-5.539 5.539c-3.061 0-5.539-2.48-5.539-5.539zM26.091 9.6h-2.584c-0.611 0-1.107-0.499-1.107-1.107v-2.587c0-0.611 0.496-1.106 1.106-1.106h2.584c0.614 0 1.11 0.494 1.11 1.106v2.586c0 0.61-0.496 1.109-1.109 1.109z"></path>
</symbol>
<symbol id="icon-google" viewBox="0 0 32 32">
<title>google</title>
<path fill="#4285f4" style="fill: var(--color1, #4285f4)" d="M16.32 13.713v5.487h9.075c-0.367 2.353-2.741 6.899-9.075 6.899-5.46 0-9.919-4.519-9.919-10.099s4.46-10.099 9.919-10.099c3.107 0 5.188 1.319 6.38 2.465l4.339-4.184c-2.787-2.601-6.4-4.183-10.719-4.183-8.847 0-16 7.153-16 16s7.153 16 16 16c9.235 0 15.36-6.492 15.36-15.635 0-1.051-0.113-1.853-0.252-2.652h-15.108z"></path>
</symbol>
<symbol id="icon-googleplus" viewBox="0 0 32 32">
<title>googleplus</title>
<path fill="#dc4e41" style="fill: var(--color2, #dc4e41)" d="M10.18 14.545v3.492h5.78c-0.231 1.5-1.747 4.393-5.775 4.393-3.472 0-6.308-2.88-6.308-6.431 0-3.549 2.829-6.429 6.304-6.429 1.98 0 3.305 0.844 4.060 1.571l2.764-2.659c-1.773-1.66-4.075-2.66-6.82-2.66-5.636-0.003-10.185 4.557-10.185 10.177s4.552 10.18 10.18 10.18c5.88 0 9.776-4.131 9.776-9.948 0-0.668-0.072-1.18-0.16-1.687h-9.616zM32 14.545h-2.911v-2.911h-2.911v2.911h-2.909v2.908h2.912v2.912h2.919v-2.912h2.9z"></path>
</symbol>
<symbol id="icon-mastercard" viewBox="0 0 32 32">
<title>mastercard</title>
<path fill="#eb001b" style="fill: var(--color3, #eb001b)" d="M15.124 24.041c0.077 0.065 0.16 0.131 0.241 0.195-1.569 1.044-3.453 1.651-5.476 1.651-5.463 0.001-9.889-4.425-9.889-9.887 0-5.46 4.427-9.888 9.888-9.888 2.024 0 3.908 0.608 5.473 1.651-0.080 0.068-0.16 0.131-0.22 0.2-2.341 2.023-3.681 4.955-3.681 8.037 0 3.081 1.335 6.013 3.664 8.041zM22.112 6.112c-2.027 0-3.908 0.608-5.473 1.651 0.080 0.068 0.16 0.131 0.22 0.2 2.341 2.023 3.681 4.955 3.681 8.037 0 3.080-1.335 6.009-3.664 8.041-0.077 0.065-0.16 0.131-0.241 0.195 1.569 1.044 3.451 1.651 5.476 1.651 5.463 0.001 9.889-4.425 9.889-9.887 0-5.459-4.427-9.888-9.888-9.888zM16 8.232c-0.128 0.1-0.252 0.2-0.373 0.308-2.085 1.812-3.401 4.48-3.401 7.46 0 2.981 1.316 5.648 3.401 7.46 0.12 0.107 0.247 0.211 0.373 0.309 0.128-0.099 0.252-0.203 0.373-0.309 2.084-1.812 3.401-4.479 3.401-7.46 0-2.98-1.316-5.648-3.401-7.46-0.12-0.107-0.245-0.208-0.373-0.308z"></path>
</symbol>
<symbol id="icon-visa" viewBox="0 0 32 32">
<title>visa</title>
<path fill="#142787" style="fill: var(--color4, #142787)" d="M23.26 11.497c-0.516-0.195-1.32-0.401-2.32-0.401-2.56 0-4.367 1.291-4.38 3.14-0.016 1.36 1.285 2.125 2.268 2.581 1.009 0.467 1.347 0.76 1.344 1.18-0.007 0.636-0.807 0.924-1.549 0.924-1.021 0-1.581-0.143-2.441-0.5l-0.319-0.148-0.361 2.131c0.621 0.26 1.741 0.483 2.9 0.5 2.721 0 4.5-1.281 4.521-3.252 0.021-1.084-0.68-1.907-2.161-2.584-0.899-0.44-1.459-0.735-1.459-1.181 0-0.395 0.479-0.816 1.479-0.816 0.86-0.013 1.461 0.172 1.94 0.364l0.24 0.108 0.361-2.059-0.063 0.013zM29.904 11.271h-2c-0.623 0-1.088 0.169-1.361 0.788l-3.847 8.712h2.721l0.544-1.427 3.32 0.003c0.081 0.333 0.32 1.424 0.32 1.424h2.399l-2.096-9.5zM12.88 11.191h2.591l-1.62 9.505h-2.592l1.621-9.508v0.003zM6.295 16.429l0.269 1.32 2.535-6.479h2.745l-4.081 9.487h-2.739l-2.24-8.035c-0.047-0.137-0.104-0.231-0.24-0.316-0.757-0.396-1.604-0.719-2.544-0.943l0.033-0.2h4.175c0.565 0.021 1.021 0.2 1.177 0.805l0.909 4.364v-0.004zM26.705 17.399l1.033-2.659c-0.013 0.027 0.213-0.549 0.344-0.907l0.177 0.82 0.599 2.743h-2.153v0.003z"></path>
</symbol>
<symbol id="icon-exit" viewBox="0 0 32 32">
<title>exit</title>
<path d="M24 20v-4h-10v-4h10v-4l6 6zM22 18v8h-10v6l-12-6v-26h22v10h-2v-8h-16l8 4v18h8v-6z"></path>
</symbol>
<symbol id="icon-hand-pointer-o" viewBox="0 0 30 32">
<title>hand-pointer-o</title>
<path d="M11.429 2.286c-1.268 0-2.286 1.018-2.286 2.286v16l-2.696-3.607c-0.446-0.589-1.161-0.964-1.911-0.964-1.25 0-2.25 1.054-2.25 2.286 0 0.5 0.161 0.982 0.464 1.375l6.857 9.143c0.429 0.571 1.107 0.911 1.821 0.911h12.821c0.518 0 0.982-0.357 1.107-0.857l1.643-6.571c0.286-1.143 0.429-2.304 0.429-3.464v-3.875c0-0.946-0.732-1.804-1.714-1.804-0.946 0-1.714 0.768-1.714 1.714h-0.571v-1.089c0-1.125-0.857-2.054-2-2.054-1.107 0-2 0.893-2 2v1.143h-0.571v-1.607c0-1.286-0.982-2.393-2.286-2.393-1.268 0-2.286 1.018-2.286 2.286v1.714h-0.571v-10.179c0-1.286-0.982-2.393-2.286-2.393zM11.429 0c2.554 0 4.571 2.143 4.571 4.679v3.929c0.196-0.018 0.375-0.036 0.571-0.036 1.161 0 2.25 0.446 3.089 1.232 0.554-0.25 1.161-0.375 1.768-0.375 1.286 0 2.482 0.571 3.286 1.554 0.339-0.089 0.661-0.125 1-0.125 2.25 0 4 1.875 4 4.089v3.875c0 1.339-0.161 2.696-0.5 4.018l-1.643 6.571c-0.375 1.518-1.75 2.589-3.321 2.589h-12.821c-1.429 0-2.804-0.696-3.661-1.821l-6.857-9.143c-0.589-0.786-0.911-1.768-0.911-2.75 0-2.5 2.036-4.571 4.536-4.571 0.821 0 1.625 0.214 2.321 0.625v-9.768c0-2.518 2.054-4.571 4.571-4.571zM13.714 25.143v-6.857h-0.571v6.857h0.571zM18.286 25.143v-6.857h-0.571v6.857h0.571zM22.857 25.143v-6.857h-0.571v6.857h0.571z"></path>
</symbol>
<symbol id="icon-whatsapp" viewBox="0 0 27 32">
<title>whatsapp</title>
<path d="M17.589 17.393c0.304 0 3.214 1.518 3.339 1.732 0.036 0.089 0.036 0.196 0.036 0.268 0 0.446-0.143 0.946-0.304 1.357-0.411 1-2.071 1.643-3.089 1.643-0.857 0-2.625-0.75-3.393-1.107-2.554-1.161-4.143-3.143-5.679-5.411-0.679-1-1.286-2.232-1.268-3.464v-0.143c0.036-1.179 0.464-2.018 1.321-2.821 0.268-0.25 0.554-0.393 0.929-0.393 0.214 0 0.429 0.054 0.661 0.054 0.482 0 0.571 0.143 0.75 0.607 0.125 0.304 1.036 2.732 1.036 2.911 0 0.679-1.232 1.446-1.232 1.857 0 0.089 0.036 0.179 0.089 0.268 0.393 0.839 1.143 1.804 1.821 2.446 0.821 0.786 1.696 1.304 2.696 1.804 0.125 0.071 0.25 0.125 0.393 0.125 0.536 0 1.429-1.732 1.893-1.732zM13.964 26.857c6.179 0 11.214-5.036 11.214-11.214s-5.036-11.214-11.214-11.214-11.214 5.036-11.214 11.214c0 2.357 0.75 4.661 2.143 6.571l-1.411 4.161 4.321-1.375c1.821 1.196 3.982 1.857 6.161 1.857zM13.964 2.179c7.429 0 13.464 6.036 13.464 13.464s-6.036 13.464-13.464 13.464c-2.268 0-4.518-0.571-6.518-1.679l-7.446 2.393 2.429-7.232c-1.268-2.089-1.929-4.5-1.929-6.946 0-7.429 6.036-13.464 13.464-13.464z"></path>
</symbol>
<symbol id="icon-automobile" viewBox="0 0 37 32">
<title>automobile</title>
<path d="M8.571 19.429c0-1.571-1.286-2.857-2.857-2.857s-2.857 1.286-2.857 2.857 1.286 2.857 2.857 2.857 2.857-1.286 2.857-2.857zM9.214 13.714h18.143l-1.589-6.375c-0.054-0.196-0.411-0.482-0.625-0.482h-13.714c-0.214 0-0.571 0.286-0.625 0.482zM33.714 19.429c0-1.571-1.286-2.857-2.857-2.857s-2.857 1.286-2.857 2.857 1.286 2.857 2.857 2.857 2.857-1.286 2.857-2.857zM36.571 17.714v6.857c0 0.321-0.25 0.571-0.571 0.571h-1.714v2.286c0 1.893-1.536 3.429-3.429 3.429s-3.429-1.536-3.429-3.429v-2.286h-18.286v2.286c0 1.893-1.536 3.429-3.429 3.429s-3.429-1.536-3.429-3.429v-2.286h-1.714c-0.321 0-0.571-0.25-0.571-0.571v-6.857c0-2.214 1.786-4 4-4h0.5l1.875-7.482c0.554-2.25 2.732-3.946 5.054-3.946h13.714c2.321 0 4.5 1.696 5.054 3.946l1.875 7.482h0.5c2.214 0 4 1.786 4 4z"></path>
</symbol>
<symbol id="icon-bath" viewBox="0 0 32 32">
<title>bath</title>
<path d="M29.714 19.429v3.429c0 2.036-0.893 3.839-2.286 5.107v3.464c0 0.321-0.25 0.571-0.571 0.571h-1.143c-0.321 0-0.571-0.25-0.571-0.571v-2.107c-0.714 0.25-1.482 0.393-2.286 0.393h-13.714c-0.804 0-1.571-0.143-2.286-0.393v1.964c0 0.393-0.25 0.714-0.571 0.714h-1.143c-0.321 0-0.571-0.321-0.571-0.714v-3.321c-1.393-1.268-2.286-3.071-2.286-5.107v-3.429h27.429zM12.571 12c0 0.321-0.25 0.571-0.571 0.571s-0.571-0.25-0.571-0.571 0.25-0.571 0.571-0.571 0.571 0.25 0.571 0.571zM13.714 10.857c0 0.321-0.25 0.571-0.571 0.571s-0.571-0.25-0.571-0.571 0.25-0.571 0.571-0.571 0.571 0.25 0.571 0.571zM12.571 9.714c0 0.321-0.25 0.571-0.571 0.571s-0.571-0.25-0.571-0.571 0.25-0.571 0.571-0.571 0.571 0.25 0.571 0.571zM14.857 9.714c0 0.321-0.25 0.571-0.571 0.571s-0.571-0.25-0.571-0.571 0.25-0.571 0.571-0.571 0.571 0.25 0.571 0.571zM13.714 8.571c0 0.321-0.25 0.571-0.571 0.571s-0.571-0.25-0.571-0.571 0.25-0.571 0.571-0.571 0.571 0.25 0.571 0.571zM12.571 7.429c0 0.321-0.25 0.571-0.571 0.571s-0.571-0.25-0.571-0.571 0.25-0.571 0.571-0.571 0.571 0.25 0.571 0.571zM32 16.571v1.143c0 0.321-0.25 0.571-0.571 0.571h-30.857c-0.321 0-0.571-0.25-0.571-0.571v-1.143c0-0.321 0.25-0.571 0.571-0.571h1.714v-11.429c0-2.518 2.054-4.571 4.571-4.571 1.286 0 2.446 0.536 3.286 1.393 1.107-0.446 2.429-0.286 3.411 0.482l0.393-0.393c0.107-0.107 0.286-0.107 0.393 0l0.75 0.75c0.107 0.107 0.107 0.286 0 0.393l-5.607 5.607c-0.107 0.107-0.286 0.107-0.393 0l-0.75-0.75c-0.107-0.107-0.107-0.286 0-0.393l0.393-0.393c-0.857-1.089-0.964-2.589-0.304-3.786-0.411-0.393-0.964-0.625-1.571-0.625-1.268 0-2.286 1.018-2.286 2.286v11.429h26.857c0.321 0 0.571 0.25 0.571 0.571zM16 8.571c0 0.321-0.25 0.571-0.571 0.571s-0.571-0.25-0.571-0.571 0.25-0.571 0.571-0.571 0.571 0.25 0.571 0.571zM14.857 7.429c0 0.321-0.25 0.571-0.571 0.571s-0.571-0.25-0.571-0.571 0.25-0.571 0.571-0.571 0.571 0.25 0.571 0.571zM13.714 6.286c0 0.321-0.25 0.571-0.571 0.571s-0.571-0.25-0.571-0.571 0.25-0.571 0.571-0.571 0.571 0.25 0.571 0.571zM17.143 7.429c0 0.321-0.25 0.571-0.571 0.571s-0.571-0.25-0.571-0.571 0.25-0.571 0.571-0.571 0.571 0.25 0.571 0.571zM16 6.286c0 0.321-0.25 0.571-0.571 0.571s-0.571-0.25-0.571-0.571 0.25-0.571 0.571-0.571 0.571 0.25 0.571 0.571zM14.857 5.143c0 0.321-0.25 0.571-0.571 0.571s-0.571-0.25-0.571-0.571 0.25-0.571 0.571-0.571 0.571 0.25 0.571 0.571zM18.286 6.286c0 0.321-0.25 0.571-0.571 0.571s-0.571-0.25-0.571-0.571 0.25-0.571 0.571-0.571 0.571 0.25 0.571 0.571zM17.143 5.143c0 0.321-0.25 0.571-0.571 0.571s-0.571-0.25-0.571-0.571 0.25-0.571 0.571-0.571 0.571 0.25 0.571 0.571zM19.429 5.143c0 0.321-0.25 0.571-0.571 0.571s-0.571-0.25-0.571-0.571 0.25-0.571 0.571-0.571 0.571 0.25 0.571 0.571z"></path>
</symbol>
<symbol id="icon-bed" viewBox="0 0 37 32">
<title>bed</title>
<path d="M4.571 18.286h30.857c0.625 0 1.143 0.518 1.143 1.143v8h-4.571v-4.571h-27.429v4.571h-4.571v-21.714c0-0.625 0.518-1.143 1.143-1.143h2.286c0.625 0 1.143 0.518 1.143 1.143v12.571zM14.857 12.571c0-2.518-2.054-4.571-4.571-4.571s-4.571 2.054-4.571 4.571 2.054 4.571 4.571 4.571 4.571-2.054 4.571-4.571zM36.571 17.143v-1.143c0-3.786-3.071-6.857-6.857-6.857h-12.571c-0.625 0-1.143 0.518-1.143 1.143v6.857h20.571z"></path>
</symbol>
<symbol id="icon-bookmark-o" viewBox="0 0 23 32">
<title>bookmark-o</title>
<path d="M20.571 4.571h-18.286v22.179l9.143-8.768 1.589 1.518 7.554 7.25v-22.179zM20.786 2.286c0.268 0 0.536 0.054 0.786 0.161 0.786 0.304 1.286 1.036 1.286 1.839v23.018c0 0.804-0.5 1.536-1.286 1.839-0.25 0.107-0.518 0.143-0.786 0.143-0.554 0-1.071-0.196-1.482-0.571l-7.875-7.571-7.875 7.571c-0.411 0.375-0.929 0.589-1.482 0.589-0.268 0-0.536-0.054-0.786-0.161-0.786-0.304-1.286-1.036-1.286-1.839v-23.018c0-0.804 0.5-1.536 1.286-1.839 0.25-0.107 0.518-0.161 0.786-0.161h18.714z"></path>
</symbol>
<symbol id="icon-bookmark" viewBox="0 0 23 32">
<title>bookmark</title>
<path d="M20.786 2.286c0.268 0 0.536 0.054 0.786 0.161 0.786 0.304 1.286 1.036 1.286 1.839v23.018c0 0.804-0.5 1.536-1.286 1.839-0.25 0.107-0.518 0.143-0.786 0.143-0.554 0-1.071-0.196-1.482-0.571l-7.875-7.571-7.875 7.571c-0.411 0.375-0.929 0.589-1.482 0.589-0.268 0-0.536-0.054-0.786-0.161-0.786-0.304-1.286-1.036-1.286-1.839v-23.018c0-0.804 0.5-1.536 1.286-1.839 0.25-0.107 0.518-0.161 0.786-0.161h18.714z"></path>
</symbol>
<symbol id="icon-envelope" viewBox="0 0 32 32">
<title>envelope</title>
<path d="M29.714 26.857v-13.714c-0.375 0.429-0.786 0.821-1.232 1.179-2.554 1.964-5.125 3.964-7.607 6.036-1.339 1.125-3 2.5-4.857 2.5h-0.036c-1.857 0-3.518-1.375-4.857-2.5-2.482-2.071-5.054-4.071-7.607-6.036-0.446-0.357-0.857-0.75-1.232-1.179v13.714c0 0.304 0.268 0.571 0.571 0.571h26.286c0.304 0 0.571-0.268 0.571-0.571zM29.714 8.089c0-0.446 0.107-1.232-0.571-1.232h-26.286c-0.304 0-0.571 0.268-0.571 0.571 0 2.036 1.018 3.804 2.625 5.071 2.393 1.875 4.786 3.768 7.161 5.661 0.946 0.768 2.661 2.411 3.911 2.411h0.036c1.25 0 2.964-1.643 3.911-2.411 2.375-1.893 4.768-3.786 7.161-5.661 1.161-0.911 2.625-2.893 2.625-4.411zM32 7.429v19.429c0 1.571-1.286 2.857-2.857 2.857h-26.286c-1.571 0-2.857-1.286-2.857-2.857v-19.429c0-1.571 1.286-2.857 2.857-2.857h26.286c1.571 0 2.857 1.286 2.857 2.857z"></path>
</symbol>
<symbol id="icon-star-o" viewBox="0 0 30 32">
<title>star-o</title>
<path d="M20.304 17.929l5.464-5.304-7.536-1.107-3.375-6.821-3.375 6.821-7.536 1.107 5.464 5.304-1.304 7.518 6.75-3.554 6.732 3.554zM29.714 11.554c0 0.321-0.232 0.625-0.464 0.857l-6.482 6.321 1.536 8.929c0.018 0.125 0.018 0.232 0.018 0.357 0 0.482-0.214 0.893-0.732 0.893-0.25 0-0.5-0.089-0.714-0.214l-8.018-4.214-8.018 4.214c-0.232 0.125-0.464 0.214-0.714 0.214-0.518 0-0.75-0.429-0.75-0.893 0-0.125 0.018-0.232 0.036-0.357l1.536-8.929-6.5-6.321c-0.214-0.232-0.446-0.536-0.446-0.857 0-0.536 0.554-0.75 1-0.821l8.964-1.304 4.018-8.125c0.161-0.339 0.464-0.732 0.875-0.732s0.714 0.393 0.875 0.732l4.018 8.125 8.964 1.304c0.429 0.071 1 0.286 1 0.821z"></path>
</symbol>
<symbol id="icon-star" viewBox="0 0 30 32">
<title>star</title>
<path d="M29.714 11.554c0 0.321-0.232 0.625-0.464 0.857l-6.482 6.321 1.536 8.929c0.018 0.125 0.018 0.232 0.018 0.357 0 0.464-0.214 0.893-0.732 0.893-0.25 0-0.5-0.089-0.714-0.214l-8.018-4.214-8.018 4.214c-0.232 0.125-0.464 0.214-0.714 0.214-0.518 0-0.75-0.429-0.75-0.893 0-0.125 0.018-0.232 0.036-0.357l1.536-8.929-6.5-6.321c-0.214-0.232-0.446-0.536-0.446-0.857 0-0.536 0.554-0.75 1-0.821l8.964-1.304 4.018-8.125c0.161-0.339 0.464-0.732 0.875-0.732s0.714 0.393 0.875 0.732l4.018 8.125 8.964 1.304c0.429 0.071 1 0.286 1 0.821z"></path>
</symbol>
<symbol id="icon-paw" viewBox="0 0 30 32">
<title>paw</title>
<path d="M13.929 8.429c0 2-1.036 4.375-3.339 4.375-2.893 0-4.643-3.643-4.643-6.143 0-2 1.036-4.375 3.339-4.375 2.911 0 4.643 3.643 4.643 6.143zM7.821 17.054c0 1.732-0.911 3.536-2.875 3.536-2.857 0-4.946-3.5-4.946-6.089 0-1.732 0.929-3.554 2.875-3.554 2.857 0 4.946 3.518 4.946 6.107zM14.857 16.571c4.375 0 10.286 6.304 10.286 10.518 0 2.268-1.857 2.625-3.679 2.625-2.393 0-4.321-1.607-6.607-1.607-2.393 0-4.429 1.589-7.018 1.589-1.732 0-3.268-0.589-3.268-2.607 0-4.232 5.911-10.518 10.286-10.518zM19.125 12.804c-2.304 0-3.339-2.375-3.339-4.375 0-2.5 1.732-6.143 4.643-6.143 2.304 0 3.339 2.375 3.339 4.375 0 2.5-1.75 6.143-4.643 6.143zM26.839 10.946c1.946 0 2.875 1.821 2.875 3.554 0 2.589-2.089 6.089-4.946 6.089-1.964 0-2.875-1.804-2.875-3.536 0-2.589 2.089-6.107 4.946-6.107z"></path>
</symbol>
<symbol id="icon-diamond" viewBox="0 0 37 32">
<title>diamond</title>
<path d="M3.786 13.714l11.125 11.875-5.357-11.875h-5.768zM18.286 27.5l6.232-13.786h-12.464zM9.607 11.429l3.643-6.857h-4.679l-5.143 6.857h6.179zM21.661 25.589l11.125-11.875h-5.768zM12.196 11.429h12.179l-3.643-6.857h-4.893zM26.964 11.429h6.179l-5.143-6.857h-4.679zM29.482 2.75l6.857 9.143c0.339 0.429 0.304 1.054-0.071 1.464l-17.143 18.286c-0.214 0.232-0.518 0.357-0.839 0.357s-0.625-0.125-0.839-0.357l-17.143-18.286c-0.375-0.411-0.411-1.036-0.071-1.464l6.857-9.143c0.214-0.304 0.554-0.464 0.911-0.464h20.571c0.357 0 0.696 0.161 0.911 0.464z"></path>
</symbol>
<symbol id="icon-group" viewBox="0 0 34 32">
<title>group</title>
<path d="M10.589 16c-1.857 0.054-3.536 0.857-4.732 2.286h-2.393c-1.786 0-3.464-0.857-3.464-2.839 0-1.446-0.054-6.304 2.214-6.304 0.375 0 2.232 1.518 4.643 1.518 0.821 0 1.607-0.143 2.375-0.411-0.054 0.393-0.089 0.786-0.089 1.179 0 1.625 0.518 3.232 1.446 4.571zM29.714 27.375c0 2.893-1.911 4.625-4.768 4.625h-15.607c-2.857 0-4.768-1.732-4.768-4.625 0-4.036 0.946-10.232 6.179-10.232 0.607 0 2.821 2.482 6.393 2.482s5.786-2.482 6.393-2.482c5.232 0 6.179 6.196 6.179 10.232zM11.429 4.571c0 2.518-2.054 4.571-4.571 4.571s-4.571-2.054-4.571-4.571 2.054-4.571 4.571-4.571 4.571 2.054 4.571 4.571zM24 11.429c0 3.786-3.071 6.857-6.857 6.857s-6.857-3.071-6.857-6.857 3.071-6.857 6.857-6.857 6.857 3.071 6.857 6.857zM34.286 15.446c0 1.982-1.679 2.839-3.464 2.839h-2.393c-1.196-1.429-2.875-2.232-4.732-2.286 0.929-1.339 1.446-2.946 1.446-4.571 0-0.393-0.036-0.786-0.089-1.179 0.768 0.268 1.554 0.411 2.375 0.411 2.411 0 4.268-1.518 4.643-1.518 2.268 0 2.214 4.857 2.214 6.304zM32 4.571c0 2.518-2.054 4.571-4.571 4.571s-4.571-2.054-4.571-4.571 2.054-4.571 4.571-4.571 4.571 2.054 4.571 4.571z"></path>
</symbol>
<symbol id="icon-calendar" viewBox="0 0 30 32">
<title>calendar</title>
<path d="M2.286 29.714h5.143v-5.143h-5.143v5.143zM8.571 29.714h5.714v-5.143h-5.714v5.143zM2.286 23.429h5.143v-5.714h-5.143v5.714zM8.571 23.429h5.714v-5.714h-5.714v5.714zM2.286 16.571h5.143v-5.143h-5.143v5.143zM15.429 29.714h5.714v-5.143h-5.714v5.143zM8.571 16.571h5.714v-5.143h-5.714v5.143zM22.286 29.714h5.143v-5.143h-5.143v5.143zM15.429 23.429h5.714v-5.714h-5.714v5.714zM9.143 8v-5.143c0-0.304-0.268-0.571-0.571-0.571h-1.143c-0.304 0-0.571 0.268-0.571 0.571v5.143c0 0.304 0.268 0.571 0.571 0.571h1.143c0.304 0 0.571-0.268 0.571-0.571zM22.286 23.429h5.143v-5.714h-5.143v5.714zM15.429 16.571h5.714v-5.143h-5.714v5.143zM22.286 16.571h5.143v-5.143h-5.143v5.143zM22.857 8v-5.143c0-0.304-0.268-0.571-0.571-0.571h-1.143c-0.304 0-0.571 0.268-0.571 0.571v5.143c0 0.304 0.268 0.571 0.571 0.571h1.143c0.304 0 0.571-0.268 0.571-0.571zM29.714 6.857v22.857c0 1.25-1.036 2.286-2.286 2.286h-25.143c-1.25 0-2.286-1.036-2.286-2.286v-22.857c0-1.25 1.036-2.286 2.286-2.286h2.286v-1.714c0-1.571 1.286-2.857 2.857-2.857h1.143c1.571 0 2.857 1.286 2.857 2.857v1.714h6.857v-1.714c0-1.571 1.286-2.857 2.857-2.857h1.143c1.571 0 2.857 1.286 2.857 2.857v1.714h2.286c1.25 0 2.286 1.036 2.286 2.286z"></path>
</symbol>
</defs>
</svg>
