<svg aria-hidden="true" style="position: absolute; width: 0; height: 0; overflow: hidden;" version="1.1" xmlns="http://www.w3.org/2000/svg" xmlns:xlink="http://www.w3.org/1999/xlink">
<defs>
<symbol id="icon-colorido" viewBox="0 0 32 32">
<title>colorido</title>
<path fill="#083f5e" style="fill: var(--color1, #083f5e)" d="M1.773 10.268c0.105-0.038 0.189-0.009 0.25 0.082l1.337 2.066c0.031 0.048 0.078 0.031 0.070-0.026l-0.304-2.441c-0.013-0.109 0.032-0.186 0.138-0.223l0.699-0.254c0.124-0.045 0.208 0.004 0.224 0.138l0.513 4.075c0.012 0.108-0.033 0.185-0.139 0.223l-1.092 0.398c-0.105 0.038-0.189 0.009-0.249-0.082l-2.227-3.451c-0.074-0.113-0.041-0.204 0.082-0.25z"></path>
<path fill="#083f5e" style="fill: var(--color1, #083f5e)" d="M8.33 11.039c0.142 0.387 0.437 1.457-0.954 1.964s-1.852-0.503-1.993-0.891l-0.534-1.468c-0.141-0.387-0.438-1.456 0.954-1.963s1.852 0.503 1.993 0.89zM6.899 10.25c-0.164-0.452-0.294-0.716-0.728-0.559s-0.364 0.444-0.199 0.896l0.308 0.846c0.164 0.452 0.294 0.717 0.729 0.559 0.434-0.158 0.363-0.445 0.199-0.896z"></path>
<path fill="#083f5e" style="fill: var(--color1, #083f5e)" d="M8.642 7.768c0.117-0.043 0.198-0.005 0.24 0.112l0.837 2.301c0.164 0.452 0.294 0.717 0.729 0.56s0.363-0.445 0.198-0.897l-0.837-2.301c-0.042-0.117 0.001-0.2 0.112-0.24l0.657-0.24c0.118-0.043 0.198-0.006 0.241 0.112l0.951 2.613c0.142 0.387 0.437 1.457-0.954 1.963s-1.852-0.503-1.993-0.89l-0.951-2.613c-0.043-0.117 0.001-0.2 0.112-0.24z"></path>
<path fill="#083f5e" style="fill: var(--color1, #083f5e)" d="M11.73 8.14c-0.141-0.388-0.437-1.456 0.954-1.963 1.251-0.455 1.75 0.314 1.938 0.757 0.035 0.080 0.007 0.164-0.070 0.212l-0.598 0.384c-0.114 0.069-0.238 0.021-0.301-0.097-0.124-0.247-0.284-0.361-0.601-0.246-0.434 0.159-0.364 0.445-0.199 0.896l0.308 0.845c0.164 0.453 0.294 0.717 0.729 0.56 0.323-0.117 0.355-0.303 0.292-0.585-0.027-0.13 0.039-0.24 0.168-0.254l0.716-0.095c0.089-0.012 0.164 0.034 0.191 0.124 0.139 0.455 0.25 1.364-1 1.82-1.391 0.506-1.851-0.503-1.992-0.891z"></path>
<path fill="#083f5e" style="fill: var(--color1, #083f5e)" d="M15.429 5.297c0.112-0.040 0.2 0.002 0.241 0.113l0.534 1.467c0.041 0.112 0.129 0.153 0.24 0.113l0.564-0.205c0.117-0.043 0.153-0.128 0.112-0.24l-0.534-1.468c-0.040-0.111 0.001-0.2 0.112-0.24l0.658-0.239c0.117-0.042 0.198-0.005 0.241 0.112l1.368 3.757c0.041 0.113 0.005 0.198-0.112 0.24l-0.657 0.239c-0.111 0.041-0.199 0-0.24-0.112l-0.338-0.927c-0.043-0.117-0.123-0.155-0.241-0.112l-0.564 0.205c-0.111 0.040-0.154 0.123-0.112 0.239l0.338 0.928c0.041 0.113 0.005 0.198-0.112 0.241l-0.657 0.239c-0.112 0.041-0.2 0.001-0.241-0.112l-1.368-3.757c-0.043-0.117-0.005-0.198 0.113-0.241z"></path>
<path fill="#083f5e" style="fill: var(--color1, #083f5e)" d="M20.76 3.357c0.117-0.043 0.198-0.006 0.241 0.112l0.24 0.658c0.040 0.112 0.005 0.198-0.113 0.24l-1.42 0.517c-0.112 0.041-0.155 0.123-0.112 0.24l0.068 0.187c0.041 0.112 0.128 0.153 0.24 0.113l0.91-0.331c0.117-0.043 0.198-0.006 0.24 0.112l0.24 0.657c0.041 0.112 0.005 0.198-0.112 0.24l-0.91 0.331c-0.112 0.040-0.155 0.123-0.112 0.24l0.069 0.188c0.040 0.112 0.128 0.153 0.24 0.113l1.421-0.517c0.118-0.043 0.198-0.006 0.24 0.111l0.24 0.657c0.043 0.117 0.005 0.198-0.113 0.24l-2.466 0.897c-0.112 0.041-0.199 0-0.24-0.112l-1.368-3.757c-0.043-0.117-0-0.2 0.111-0.24z"></path>
<path fill="#083f5e" style="fill: var(--color1, #083f5e)" d="M25.861 5.795c0.138 0.123 0.104 0.321-0.078 0.388l-0.669 0.243c-0.058 0.021-0.123 0.011-0.165-0.033l-1.040-0.957c-0.019-0.013-0.040-0.019-0.058-0.013l-0.235 0.086c-0.106 0.038-0.154 0.143-0.116 0.248l0.338 0.927c0.039 0.106-0.010 0.209-0.116 0.248l-0.657 0.24c-0.106 0.038-0.21-0.009-0.248-0.116l-1.363-3.745c-0.039-0.106 0.010-0.21 0.116-0.248l1.286-0.469c1.045-0.38 1.63-0.087 1.98 0.876 0.199 0.545 0.203 0.976-0.027 1.312-0.018 0.026-0.013 0.058 0.010 0.083zM22.959 3.701c-0.106 0.038-0.155 0.143-0.116 0.248l0.158 0.435c0.038 0.106 0.143 0.155 0.248 0.116l0.299-0.109c0.282-0.103 0.41-0.189 0.278-0.553s-0.286-0.348-0.568-0.245z"></path>
<path fill="#da0035" style="fill: var(--color2, #da0035)" d="M15.721 18.826c-0.123-0.339-0.234-0.491-0.701-0.321s-0.454 0.357-0.331 0.697l0.281 0.771c0.049 0.134 0.156 0.184 0.29 0.135l0.608-0.221c0.138-0.058 0.184-0.155 0.132-0.296z"></path>
<path fill="#da0035" style="fill: var(--color2, #da0035)" d="M31.744 20.224l-1.088-2.99c-0.16-0.443-0.569-0.748-1.039-0.777-0.845-0.051-1.578-0.598-1.866-1.393-0.29-0.794-0.079-1.684 0.536-2.267 0.342-0.324 0.459-0.82 0.298-1.263l-1.087-2.991c-0.223-0.613-0.902-0.93-1.516-0.708l-21.334 7.756c-0.615 0.223-0.931 0.902-0.708 1.516l1.087 2.99c0.161 0.443 0.57 0.748 1.040 0.777 0.845 0.051 1.578 0.598 1.867 1.392s0.079 1.685-0.536 2.266c-0.342 0.325-0.46 0.821-0.299 1.264l1.088 2.991c0.108 0.294 0.327 0.535 0.612 0.667s0.609 0.147 0.905 0.040l21.335-7.756c0.294-0.107 0.535-0.327 0.668-0.611s0.147-0.61 0.040-0.905zM13.354 16.5l0.336-0.835c0.050-0.106 0.108-0.167 0.22-0.208l0.743-0.271c0.204-0.075 0.296 0.044 0.187 0.228l-0.577 0.947c-0.054 0.092-0.122 0.148-0.228 0.187l-0.467 0.17c-0.19 0.069-0.284-0.033-0.215-0.218zM12.863 21.42l-1.167 0.425c-0.135 0.049-0.186 0.148-0.135 0.289l0.525 1.442c0.049 0.134 0.006 0.238-0.135 0.289l-0.835 0.304c-0.134 0.049-0.241-0.001-0.289-0.135l-1.647-4.525c-0.052-0.141 0.001-0.24 0.136-0.289l3.040-1.107c0.142-0.052 0.238-0.006 0.289 0.135l0.288 0.791c0.049 0.134 0.007 0.238-0.135 0.29l-1.781 0.648c-0.135 0.049-0.186 0.148-0.135 0.289l0.082 0.226c0.049 0.135 0.155 0.184 0.289 0.135l1.166-0.425c0.141-0.052 0.237-0.007 0.289 0.135l0.288 0.792c0.049 0.135 0.007 0.238-0.134 0.289zM17.904 21.698l-0.792 0.288c-0.134 0.049-0.238 0.007-0.29-0.135l-0.224-0.615c-0.052-0.142-0.148-0.186-0.289-0.135l-0.609 0.221c-0.134 0.049-0.187 0.148-0.135 0.289l0.224 0.615c0.052 0.142 0.007 0.238-0.134 0.289l-0.792 0.288c-0.135 0.049-0.243-0.007-0.3-0.162l-1.091-2.998c-0.324-0.891-0.528-1.89 1.063-2.469s2.077 0.317 2.402 1.208l1.091 2.998c0.057 0.155 0.017 0.266-0.125 0.318zM20.538 20.884c-1.675 0.61-2.23-0.606-2.4-1.073l-0.643-1.768c-0.17-0.466-0.526-1.754 1.149-2.363 1.506-0.548 2.107 0.378 2.333 0.912 0.043 0.096 0.008 0.198-0.083 0.254l-0.72 0.462c-0.139 0.082-0.287 0.025-0.363-0.116-0.148-0.298-0.343-0.436-0.725-0.297-0.523 0.19-0.438 0.535-0.239 1.080l0.371 1.018c0.198 0.545 0.355 0.864 0.878 0.673 0.389-0.142 0.428-0.364 0.352-0.705-0.033-0.156 0.047-0.289 0.201-0.305l0.863-0.114c0.107-0.015 0.199 0.040 0.23 0.148 0.167 0.548 0.302 1.644-1.204 2.192zM23.738 19.575l-0.778 0.283c-0.134 0.049-0.24-0.001-0.289-0.135l-1.647-4.525c-0.052-0.141 0.001-0.241 0.135-0.289l0.778-0.283c0.142-0.052 0.238-0.007 0.289 0.134l1.647 4.525c0.049 0.134 0.006 0.238-0.135 0.289zM27.662 18.147l-2.793 1.016c-0.135 0.049-0.241-0.001-0.29-0.135l-1.647-4.525c-0.052-0.141 0.001-0.24 0.135-0.289l0.792-0.288c0.142-0.052 0.238-0.007 0.289 0.135l1.205 3.309c0.049 0.134 0.155 0.184 0.289 0.135l1.577-0.574c0.142-0.052 0.238-0.007 0.289 0.135l0.288 0.792c0.052 0.142 0.006 0.238-0.135 0.289z"></path>
</symbol>
<symbol id="icon-cinza" viewBox="0 0 32 32">
<title>cinza</title>
<path d="M1.773 10.268c0.105-0.038 0.189-0.009 0.25 0.082l1.337 2.066c0.031 0.048 0.078 0.031 0.070-0.026l-0.304-2.441c-0.013-0.109 0.032-0.186 0.138-0.223l0.699-0.254c0.124-0.045 0.208 0.004 0.224 0.138l0.513 4.075c0.012 0.108-0.033 0.185-0.139 0.223l-1.092 0.398c-0.105 0.038-0.189 0.009-0.249-0.082l-2.227-3.451c-0.074-0.113-0.041-0.204 0.082-0.25z"></path>
<path d="M8.33 11.039c0.142 0.387 0.437 1.457-0.954 1.964s-1.852-0.503-1.993-0.891l-0.534-1.468c-0.141-0.387-0.438-1.456 0.954-1.963s1.852 0.503 1.993 0.89zM6.899 10.25c-0.164-0.452-0.294-0.716-0.728-0.559s-0.364 0.444-0.199 0.896l0.308 0.846c0.164 0.452 0.294 0.717 0.729 0.559 0.434-0.158 0.363-0.445 0.199-0.896z"></path>
<path d="M8.642 7.768c0.117-0.043 0.198-0.005 0.24 0.112l0.837 2.301c0.164 0.452 0.294 0.717 0.729 0.56s0.363-0.445 0.198-0.897l-0.837-2.301c-0.042-0.117 0.001-0.2 0.112-0.24l0.657-0.24c0.118-0.043 0.198-0.006 0.241 0.112l0.951 2.613c0.142 0.387 0.437 1.457-0.954 1.963s-1.852-0.503-1.993-0.89l-0.951-2.613c-0.043-0.117 0.001-0.2 0.112-0.24z"></path>
<path d="M11.73 8.14c-0.141-0.388-0.437-1.456 0.954-1.963 1.251-0.455 1.75 0.314 1.938 0.757 0.035 0.080 0.007 0.164-0.070 0.212l-0.598 0.384c-0.114 0.069-0.238 0.021-0.301-0.097-0.124-0.247-0.284-0.361-0.601-0.246-0.434 0.159-0.364 0.445-0.199 0.896l0.308 0.845c0.164 0.453 0.294 0.717 0.729 0.56 0.323-0.117 0.355-0.303 0.292-0.585-0.027-0.13 0.039-0.24 0.168-0.254l0.716-0.095c0.089-0.012 0.164 0.034 0.191 0.124 0.139 0.455 0.25 1.364-1 1.82-1.391 0.506-1.851-0.503-1.992-0.891z"></path>
<path d="M15.429 5.297c0.112-0.040 0.2 0.002 0.241 0.113l0.534 1.467c0.041 0.112 0.129 0.153 0.24 0.113l0.564-0.205c0.117-0.043 0.153-0.128 0.112-0.24l-0.534-1.468c-0.040-0.111 0.001-0.2 0.112-0.24l0.658-0.239c0.117-0.042 0.198-0.005 0.241 0.112l1.368 3.757c0.041 0.113 0.005 0.198-0.112 0.24l-0.657 0.239c-0.111 0.041-0.199 0-0.24-0.112l-0.338-0.927c-0.043-0.117-0.123-0.155-0.241-0.112l-0.564 0.205c-0.111 0.040-0.154 0.123-0.112 0.239l0.338 0.928c0.041 0.113 0.005 0.198-0.112 0.241l-0.657 0.239c-0.112 0.041-0.2 0.001-0.241-0.112l-1.368-3.757c-0.043-0.117-0.005-0.198 0.113-0.241z"></path>
<path d="M20.76 3.357c0.117-0.043 0.198-0.006 0.241 0.112l0.24 0.658c0.040 0.112 0.005 0.198-0.113 0.24l-1.42 0.517c-0.112 0.041-0.155 0.123-0.112 0.24l0.068 0.187c0.041 0.112 0.128 0.153 0.24 0.113l0.91-0.331c0.117-0.043 0.198-0.006 0.24 0.112l0.24 0.657c0.041 0.112 0.005 0.198-0.112 0.24l-0.91 0.331c-0.112 0.040-0.155 0.123-0.112 0.24l0.069 0.188c0.040 0.112 0.128 0.153 0.24 0.113l1.421-0.517c0.118-0.043 0.198-0.006 0.24 0.111l0.24 0.657c0.043 0.117 0.005 0.198-0.113 0.24l-2.466 0.897c-0.112 0.041-0.199 0-0.24-0.112l-1.368-3.757c-0.043-0.117-0-0.2 0.111-0.24z"></path>
<path d="M25.861 5.795c0.138 0.123 0.104 0.321-0.078 0.388l-0.669 0.243c-0.058 0.021-0.123 0.011-0.165-0.033l-1.040-0.957c-0.019-0.013-0.040-0.019-0.058-0.013l-0.235 0.086c-0.106 0.038-0.154 0.143-0.116 0.248l0.338 0.927c0.039 0.106-0.010 0.209-0.116 0.248l-0.657 0.24c-0.106 0.038-0.21-0.009-0.248-0.116l-1.363-3.745c-0.039-0.106 0.010-0.21 0.116-0.248l1.286-0.469c1.045-0.38 1.63-0.087 1.98 0.876 0.199 0.545 0.203 0.976-0.027 1.312-0.018 0.026-0.013 0.058 0.010 0.083zM22.959 3.701c-0.106 0.038-0.155 0.143-0.116 0.248l0.158 0.435c0.038 0.106 0.143 0.155 0.248 0.116l0.299-0.109c0.282-0.103 0.41-0.189 0.278-0.553s-0.286-0.348-0.568-0.245z"></path>
<path d="M15.721 18.826c-0.123-0.339-0.234-0.491-0.701-0.321s-0.454 0.357-0.331 0.697l0.281 0.771c0.049 0.134 0.156 0.184 0.29 0.135l0.608-0.221c0.138-0.058 0.184-0.155 0.132-0.296z"></path>
<path d="M31.744 20.224l-1.088-2.99c-0.16-0.443-0.569-0.748-1.039-0.777-0.845-0.051-1.578-0.598-1.866-1.393-0.29-0.794-0.079-1.684 0.536-2.267 0.342-0.324 0.459-0.82 0.298-1.263l-1.087-2.991c-0.223-0.613-0.902-0.93-1.516-0.708l-21.334 7.756c-0.615 0.223-0.931 0.902-0.708 1.516l1.087 2.99c0.161 0.443 0.57 0.748 1.040 0.777 0.845 0.051 1.578 0.598 1.867 1.392s0.079 1.685-0.536 2.266c-0.342 0.325-0.46 0.821-0.299 1.264l1.088 2.991c0.108 0.294 0.327 0.535 0.612 0.667s0.609 0.147 0.905 0.040l21.335-7.756c0.294-0.107 0.535-0.327 0.668-0.611s0.147-0.61 0.040-0.905zM13.354 16.5l0.336-0.835c0.050-0.106 0.108-0.167 0.22-0.208l0.743-0.271c0.204-0.075 0.296 0.044 0.187 0.228l-0.577 0.947c-0.054 0.092-0.122 0.148-0.228 0.187l-0.467 0.17c-0.19 0.069-0.284-0.033-0.215-0.218zM12.863 21.42l-1.167 0.425c-0.135 0.049-0.186 0.148-0.135 0.289l0.525 1.442c0.049 0.134 0.006 0.238-0.135 0.289l-0.835 0.304c-0.134 0.049-0.241-0.001-0.289-0.135l-1.647-4.525c-0.052-0.141 0.001-0.24 0.136-0.289l3.040-1.107c0.142-0.052 0.238-0.006 0.289 0.135l0.288 0.791c0.049 0.134 0.007 0.238-0.135 0.29l-1.781 0.648c-0.135 0.049-0.186 0.148-0.135 0.289l0.082 0.226c0.049 0.135 0.155 0.184 0.289 0.135l1.166-0.425c0.141-0.052 0.237-0.007 0.289 0.135l0.288 0.792c0.049 0.135 0.007 0.238-0.134 0.289zM17.904 21.698l-0.792 0.288c-0.134 0.049-0.238 0.007-0.29-0.135l-0.224-0.615c-0.052-0.142-0.148-0.186-0.289-0.135l-0.609 0.221c-0.134 0.049-0.187 0.148-0.135 0.289l0.224 0.615c0.052 0.142 0.007 0.238-0.134 0.289l-0.792 0.288c-0.135 0.049-0.243-0.007-0.3-0.162l-1.091-2.998c-0.324-0.891-0.528-1.89 1.063-2.469s2.077 0.317 2.402 1.208l1.091 2.998c0.057 0.155 0.017 0.266-0.125 0.318zM20.538 20.884c-1.675 0.61-2.23-0.606-2.4-1.073l-0.643-1.768c-0.17-0.466-0.526-1.754 1.149-2.363 1.506-0.548 2.107 0.378 2.333 0.912 0.043 0.096 0.008 0.198-0.083 0.254l-0.72 0.462c-0.139 0.082-0.287 0.025-0.363-0.116-0.148-0.298-0.343-0.436-0.725-0.297-0.523 0.19-0.438 0.535-0.239 1.080l0.371 1.018c0.198 0.545 0.355 0.864 0.878 0.673 0.389-0.142 0.428-0.364 0.352-0.705-0.033-0.156 0.047-0.289 0.201-0.305l0.863-0.114c0.107-0.015 0.199 0.040 0.23 0.148 0.167 0.548 0.302 1.644-1.204 2.192zM23.738 19.575l-0.778 0.283c-0.134 0.049-0.24-0.001-0.289-0.135l-1.647-4.525c-0.052-0.141 0.001-0.241 0.135-0.289l0.778-0.283c0.142-0.052 0.238-0.007 0.289 0.134l1.647 4.525c0.049 0.134 0.006 0.238-0.135 0.289zM27.662 18.147l-2.793 1.016c-0.135 0.049-0.241-0.001-0.29-0.135l-1.647-4.525c-0.052-0.141 0.001-0.24 0.135-0.289l0.792-0.288c0.142-0.052 0.238-0.007 0.289 0.135l1.205 3.309c0.049 0.134 0.155 0.184 0.289 0.135l1.577-0.574c0.142-0.052 0.238-0.007 0.289 0.135l0.288 0.792c0.052 0.142 0.006 0.238-0.135 0.289z"></path>
</symbol>
</defs>
</svg>
